<svg width="250px" height="250px" viewBox="0 0 250 250" version="1.1" xmlns="http://www.w3.org/2000/svg" xmlns:xlink="http://www.w3.org/1999/xlink"><defs><linearGradient x1="16.6955139%" y1="14.5316395%" x2="84.7353924%" y2="87.1955604%" id="linearGradient-1"><stop stop-color="#4FD1C5" offset="0%"></stop><stop stop-color="#6B46C1" offset="100%"></stop></linearGradient></defs><g id="Page-1" stroke="none" stroke-width="1" fill="none" fill-rule="evenodd"><g id="favicon-250x250" fill-rule="nonzero"><path d="M125,0 C194.035594,0 250,55.9644063 250,125 C250,194.035594 194.035594,250 125,250 C55.9644063,250 0,194.035594 0,125 C0,55.9644063 55.9644063,0 125,0 Z" id="Rectangle" fill="url(#linearGradient-1)"></path><path d="M67.7336478,131.895491 L152.939873,47.275744 C154.531313,45.6949074 157.09357,47.6186428 156.018667,49.5880008 L124.305632,107.712612 C123.597461,109.008332 124.536177,110.590044 126.012831,110.590044 L180.818278,110.590044 C182.583842,110.590044 183.435982,112.752495 182.145126,113.957748 L86.1064105,203.590044 C84.384426,205.197047 81.8212937,202.932456 83.203784,201.025841 L128.666527,138.308915 C129.598434,137.022923 128.680146,135.221367 127.091624,135.221367 L69.1045622,135.221367 C67.3680836,135.221367 66.5015466,133.119226 67.7336478,131.895491 Z" id="Path" fill="#FFFFFF"></path></g></g></svg>