<?xml version="1.0" encoding="UTF-8"?>
<svg width="821px" height="455px" viewBox="0 0 821 455" version="1.1" xmlns="http://www.w3.org/2000/svg" xmlns:xlink="http://www.w3.org/1999/xlink">
    <title>Outlined</title>
    <defs>
        <linearGradient x1="16.6955139%" y1="14.5316395%" x2="84.7353924%" y2="87.1955604%" id="linearGradient-1">
            <stop stop-color="#4FD1C5" offset="0%"></stop>
            <stop stop-color="#6B46C1" offset="100%"></stop>
        </linearGradient>
    </defs>
    <g id="Page-1" stroke="none" stroke-width="1" fill="none" fill-rule="evenodd">
        <g id="Outlined">
            <polygon id="Rectangle" points="0 0 821 0 821 455 0 455"></polygon>
            <path d="M409.535519,24 C480.504109,24 538.035519,81.5314096 538.035519,152.5 C538.035519,223.46859 480.504109,281 409.535519,281 C338.566929,281 281.035519,223.46859 281.035519,152.5 C281.035519,81.5314096 338.566929,24 409.535519,24 Z" id="Rectangle" fill="url(#linearGradient-1)" fill-rule="nonzero"></path>
            <path d="M350.63019,159.588565 L438.22219,72.5994648 C439.85819,70.9743648 442.49219,72.9519648 441.38719,74.9764648 L408.78619,134.728565 C408.05819,136.060565 409.02319,137.686565 410.54119,137.686565 L466.88119,137.686565 C468.69619,137.686565 469.57219,139.909565 468.24519,141.148565 L369.51739,233.290565 C367.74719,234.942565 365.11229,232.614565 366.53349,230.654565 L413.26919,166.181565 C414.22719,164.859565 413.28319,163.007565 411.65019,163.007565 L352.03949,163.007565 C350.25439,163.007565 349.36359,160.846565 350.63019,159.588565 Z" id="Path" fill="#FFFFFF" fill-rule="nonzero"></path>
            <path d="M70.1512411,429 C90.7336078,429 101.695955,418.261374 101.695955,403.67474 C101.695955,390.117225 91.9864475,381.929022 81.5610313,381.436835 L81.5610313,380.54195 C91.091562,378.394224 98.1164133,371.637839 98.1164133,360.854468 C98.1164133,347.117976 87.9147184,337.363724 67.6903059,337.363724 L31,337.363724 L31,429 L70.1512411,429 Z M64.7371837,375.709568 L50.3742713,375.709568 L50.3742713,353.02422 L65.0951379,353.02422 C73.6860388,353.02422 78.5631649,357.453903 78.5631649,364.076056 C78.5631649,371.324629 72.6569205,375.709568 64.7371837,375.709568 Z M66.1690006,413.160526 L50.3742713,413.160526 L50.3742713,388.819641 L66.6164433,388.819641 C75.9232526,388.819641 81.6952642,394.188954 81.6952642,401.750736 C81.6952642,408.641355 76.9971152,413.160526 66.1690006,413.160526 Z M129.627151,429 L129.627151,337.363724 L110.566089,337.363724 L110.566089,429 L129.627151,429 Z M151.070379,351.413426 C156.752902,351.413426 161.406307,347.073232 161.406307,341.748663 C161.406307,336.468838 156.752902,332.128644 151.070379,332.128644 C145.4326,332.128644 140.779196,336.468838 140.779196,341.748663 C140.779196,347.073232 145.4326,351.413426 151.070379,351.413426 Z M160.556166,429 L160.556166,360.272793 L141.495104,360.272793 L141.495104,429 L160.556166,429 Z M199.897104,429.93963 C204.818975,429.760653 208.309028,428.776279 210.233032,428.149859 L207.235166,413.965923 C206.295536,414.144901 204.282043,414.592343 202.492272,414.592343 C198.689009,414.592343 196.049097,413.160526 196.049097,407.880702 L196.049097,374.590961 L208.980192,374.590961 L208.980192,360.272793 L196.049097,360.272793 L196.049097,343.806899 L176.988035,343.806899 L176.988035,360.272793 L167.591737,360.272793 L167.591737,374.590961 L176.988035,374.590961 L176.988035,410.386381 C176.898547,423.854408 186.071123,430.521305 199.897104,429.93963 Z M275.436176,429 L275.436176,413.786946 L242.683366,413.786946 L242.683366,413.294759 L274.272825,372.666957 L274.272825,360.272793 L218.834667,360.272793 L218.834667,375.485846 L251.319011,375.485846 L251.319011,375.978034 L217.671316,417.634954 L217.671316,429 L275.436176,429 Z" id="Blitz" fill="#6B46C1" fill-rule="nonzero"></path>
            <path d="M420.075245,430.25284 C443.56599,430.25284 457.749925,414.637088 459.852906,397.768496 L440.254913,397.679007 C438.420398,407.478003 430.724382,413.115782 420.388455,413.115782 C406.472985,413.115782 397.031943,402.779855 397.031943,383.181862 C397.031943,364.120801 406.338752,353.247942 420.522688,353.247942 C431.127081,353.247942 438.778352,359.377907 440.254913,369.445369 L459.852906,369.445369 C457.302482,348.281327 441.284032,336.110884 420.075245,336.110884 C395.868592,336.110884 377.389206,353.203197 377.389206,383.181862 C377.389206,413.071038 395.555382,430.25284 420.075245,430.25284 Z M489.12644,429 L489.12644,389.267083 C489.171185,380.407717 494.585242,375.217381 502.370746,375.217381 C510.111506,375.217381 514.675422,380.183995 514.630677,388.640663 L514.630677,429 L533.691896,429 L533.691896,385.240099 C533.736483,369.132159 524.250697,359.377907 509.932528,359.377907 C499.507112,359.377907 492.527005,364.299778 489.394906,372.398491 L488.589509,372.398491 L488.589509,337.363724 L470.065379,337.363724 L470.065379,429 L489.12644,429 Z M564.97875,430.297584 C575.135701,430.297584 581.713109,425.867901 585.06893,419.469469 L585.605861,419.469469 L585.605861,429 L603.682549,429 L603.682549,382.644931 C603.682549,366.268526 589.811823,359.377907 574.509281,359.377907 C558.043388,359.377907 547.215273,367.2529 544.575361,379.781297 L562.204605,381.213114 C563.502189,376.649198 567.573918,373.293377 574.419792,373.293377 C580.907712,373.293377 584.621487,376.559709 584.621487,382.197488 L584.621487,382.465953 C584.621487,386.895637 579.923338,387.477312 567.976617,388.640663 C554.374357,389.893503 542.15917,394.457419 542.15917,409.804706 C542.15917,423.406966 551.868678,430.297584 564.97875,430.297584 Z M570.437552,417.142767 C564.576052,417.142767 560.37009,414.413366 560.37009,409.178286 C560.37009,403.808973 564.799773,401.169061 571.511414,400.229431 C575.672632,399.647755 582.473762,398.663381 584.75572,397.142076 L584.75572,404.435393 C584.75572,411.639221 578.804731,417.142767 570.437552,417.142767 Z M634.208902,429 L634.208902,407.164794 L639.354494,401.303293 L658.102345,429 L680.429739,429 L653.627918,390.027736 L679.132155,360.272793 L657.252204,360.272793 L635.23802,386.358705 L634.208902,386.358705 L634.208902,337.363724 L615.147841,337.363724 L615.147841,429 L634.208902,429 Z M704.154963,429 L704.154963,390.117225 C704.154963,381.660557 710.329673,375.843801 718.741596,375.843801 C721.381509,375.843801 725.005795,376.291243 726.795566,376.872919 L726.795566,359.959583 C725.095283,359.556884 722.723837,359.288419 720.799833,359.288419 C713.103818,359.288419 706.794875,363.762846 704.289195,372.264259 L703.573287,372.264259 L703.573287,360.272793 L685.093901,360.272793 L685.093901,429 L704.154963,429 Z M750.923466,430.297584 C761.080416,430.297584 767.657825,425.867901 771.013645,419.469469 L771.550577,419.469469 L771.550577,429 L789.627264,429 L789.627264,382.644931 C789.627264,366.268526 775.756539,359.377907 760.453996,359.377907 C743.988103,359.377907 733.159988,367.2529 730.520076,379.781297 L748.149321,381.213114 C749.446905,376.649198 753.518634,373.293377 760.364508,373.293377 C766.852428,373.293377 770.566203,376.559709 770.566203,382.197488 L770.566203,382.465953 C770.566203,386.895637 765.868054,387.477312 753.921332,388.640663 C740.319072,389.893503 728.103885,394.457419 728.103885,409.804706 C728.103885,423.406966 737.813393,430.297584 750.923466,430.297584 Z M756.382267,417.142767 C750.520767,417.142767 746.314805,414.413366 746.314805,409.178286 C746.314805,403.808973 750.744489,401.169061 757.45613,400.229431 C761.617348,399.647755 768.418477,398.663381 770.700435,397.142076 L770.700435,404.435393 C770.700435,411.639221 764.749447,417.142767 756.382267,417.142767 Z" id="Chakra" fill="#27292C" fill-rule="nonzero"></path>
            <polygon id="+" fill="#4FD1C5" fill-rule="nonzero" points="334.865016 424.033385 334.865016 400.363664 358.534738 400.363664 358.534738 384.345213 334.865016 384.345213 334.865016 360.675491 318.846565 360.675491 318.846565 384.345213 295.176844 384.345213 295.176844 400.363664 318.846565 400.363664 318.846565 424.033385"></polygon>
        </g>
    </g>
</svg>